<svg width="404" height="77" viewBox="0 0 404 77" fill="none" xmlns="http://www.w3.org/2000/svg">
<rect width="404" height="76.8477" fill="#595957"/>
<path fill-rule="evenodd" clip-rule="evenodd" d="M152.309 10C156.019 10 159.012 10.8166 161.288 12.4492C163.564 14.0819 164.702 16.5801 164.702 19.9443C164.702 22.0718 164.282 23.7543 163.44 24.9912C162.599 26.1786 161.288 26.7725 159.507 26.7725C157.726 26.7724 156.316 26.1289 155.277 24.8428C156.168 24.3975 156.959 23.5065 157.651 22.1709C158.344 20.8351 158.69 19.4494 158.69 18.0146C158.69 16.679 158.319 15.591 157.577 14.75C156.885 13.909 155.747 13.4883 154.164 13.4883C151.542 13.4883 149.043 15.2936 146.668 18.9053C144.293 22.4674 142.364 26.97 140.88 32.4121C139.445 37.8544 138.728 43.099 138.728 48.1455C138.728 51.9055 139.371 54.7749 140.657 56.7539C141.944 58.7329 144.269 59.7226 147.633 59.7227C150.552 59.7227 153.249 59.0793 155.723 57.793C157.673 56.7786 159.407 55.4245 160.927 53.7334C160.98 50.2004 161.695 46.5074 163.074 42.6543C164.558 38.5973 166.735 35.1827 169.604 32.4121C172.524 29.592 175.988 28.1826 179.995 28.1826C182.023 28.1827 183.532 28.5291 184.521 29.2217C185.511 29.9143 186.006 30.829 186.006 31.9668V32.4863L186.822 28.5537H197.509L192.166 53.7861C191.968 54.5281 191.869 55.3193 191.869 56.1602C191.869 58.2876 192.884 59.3516 194.912 59.3516C196.297 59.3514 197.484 58.7081 198.474 57.4219C198.516 57.3694 198.557 57.3155 198.599 57.2617C198.583 57.044 198.575 56.8251 198.575 56.6055C198.575 54.973 198.971 53.5633 199.763 52.376C200.505 51.1391 201.42 50.2483 202.509 49.7041C204.438 46.241 206.12 42.7529 207.555 39.2402C208.989 35.6781 210.35 31.8436 211.637 27.7373L222.62 26.2529C222.867 32.5857 223.288 39.4379 223.882 46.8096C224.129 49.7781 224.253 51.9308 224.253 53.2666C224.253 54.4042 224.154 55.3439 223.956 56.0859C226.281 54.7501 228.063 53.5139 229.3 52.376H229.588L234.037 31.5215H231.588L232.182 28.5537H234.631L236.857 18.3115L247.841 16.8281C247.396 18.7075 247.148 19.8204 247.099 20.167C246.752 21.5523 246.158 24.3483 245.317 28.5537H249.771L249.177 31.5215H244.724L239.974 53.7861C239.726 54.8742 239.603 55.7398 239.603 56.3828C239.603 58.1639 240.469 59.0546 242.2 59.0547C243.091 59.0547 243.734 58.9805 244.13 58.832C243.14 61.7016 241.977 63.6316 240.642 64.6211C239.306 65.6104 237.847 66.1054 236.264 66.1055C233.74 66.1055 231.86 65.3384 230.623 63.8047C229.436 62.2709 228.842 60.242 228.842 57.7188C228.842 57.1318 228.874 56.5397 228.936 55.9424C226.577 58.0904 223.954 59.9951 221.062 61.6523C219.627 63.186 217.846 64.3243 215.719 65.0664C213.641 65.7591 211.538 66.1055 209.41 66.1055C207.036 66.1055 205.032 65.6599 203.399 64.7695C201.767 63.8295 200.554 62.6418 199.763 61.207C199.72 61.1272 199.679 61.0469 199.639 60.9668C198.873 61.907 198.065 62.6804 197.212 63.2852C194.54 65.1651 191.844 66.1055 189.123 66.1055C187.045 66.1055 185.363 65.5364 184.076 64.3984C182.839 63.211 182.098 61.5037 181.851 59.2773C180.416 61.3058 178.807 62.9636 177.026 64.25C175.295 65.4869 173.216 66.1055 170.792 66.1055C167.972 66.1054 165.622 65.1403 163.742 63.2109C162.46 61.8952 161.616 60.0731 161.208 57.7451C160.363 58.8785 159.401 59.9092 158.319 60.8359C155.895 62.9138 153.298 64.448 150.527 65.4375C147.757 66.3775 145.135 66.8476 142.661 66.8477C137.071 66.8477 132.964 65.4371 130.342 62.6172C127.72 59.7971 126.408 55.1216 126.408 48.5908C126.408 43.3959 127.274 37.8049 129.006 31.8184C130.787 25.8321 133.607 20.7118 137.466 16.457C141.374 12.1527 146.322 10 152.309 10ZM212.082 35.752C210.895 39.6605 208.89 44.336 206.07 49.7783C207.208 50.372 207.777 51.238 207.777 52.376C207.777 53.3158 207.456 54.1564 206.812 54.8984C206.219 55.6406 205.452 56.0117 204.512 56.0117C203.754 56.0116 203.195 55.84 202.832 55.498C202.74 55.7084 202.649 55.9158 202.556 56.1191C202.672 57.3644 203.002 58.3181 203.548 58.9805C204.29 59.8214 205.452 60.2421 207.035 60.2422C208.866 60.2422 210.4 59.6978 211.637 58.6094C212.873 57.521 213.492 55.7648 213.492 53.3408C213.492 51.8566 213.344 49.7781 213.047 47.1064C212.552 41.4663 212.23 37.6815 212.082 35.752ZM182.295 32.7832C180.316 32.7834 178.535 33.9464 176.952 36.2715C175.369 38.5473 174.132 41.3178 173.241 44.583C172.351 47.7989 171.905 50.6444 171.905 53.1182C171.905 55.5915 172.252 57.1744 172.944 57.8672C173.686 58.5598 174.577 58.9062 175.616 58.9062C176.853 58.9062 178.066 58.3371 179.253 57.1992C180.49 56.0119 181.331 54.4042 181.776 52.376L185.338 35.6035C185.338 34.9604 185.09 34.3417 184.596 33.748C184.101 33.105 183.334 32.7832 182.295 32.7832Z" fill="#F5F5F5"/>
<path fill-rule="evenodd" clip-rule="evenodd" d="M74.8711 27.8857C81.204 27.8857 84.3711 31.8437 84.3711 39.7598V39.834C84.5196 39.8834 84.792 39.9082 85.1875 39.9082C86.8201 39.9081 88.6999 39.4874 90.8271 38.6465C90.9269 38.6047 91.0251 38.5591 91.124 38.5166L93.2354 28.5537H103.922L98.5791 53.7861C98.4308 54.3796 98.3565 54.9977 98.3564 55.6406C98.3564 57.8175 99.0987 58.9062 100.583 58.9062C101.968 58.9061 103.155 58.337 104.145 57.1992C105.134 56.0119 105.926 54.4043 106.52 52.376L111.566 28.5537H122.253L116.909 53.7861C116.711 54.528 116.612 55.3194 116.612 56.1602C116.612 57.1495 116.835 57.8672 117.28 58.3125C117.775 58.7083 118.567 58.9062 119.655 58.9062C120.447 58.9062 121.016 58.8568 121.362 58.7578C121.758 58.6094 122.006 58.5104 122.104 58.4609C121.907 60.9842 121.041 62.8894 119.507 64.1758C117.973 65.462 116.093 66.1054 113.867 66.1055C111.789 66.1055 110.107 65.4868 108.82 64.25C107.583 63.0131 106.841 61.2811 106.594 59.0547C104.912 61.7757 103.131 63.6315 101.251 64.6211C99.4204 65.6106 97.5151 66.1055 95.5361 66.1055C93.1613 66.1055 91.2313 65.3632 89.7471 63.8789C88.3124 62.3946 87.5957 60.1677 87.5957 57.1992C87.5957 55.9624 87.7937 54.3547 88.1895 52.376L90.4043 41.9189C88.4692 42.6856 86.3841 43.2523 84.1484 43.6182C83.7526 48.1204 82.7382 52.0546 81.1055 55.4189C79.4728 58.7831 77.3695 61.3804 74.7969 63.2109C72.2242 65.0414 69.429 65.957 66.4111 65.957C62.7501 65.957 59.8559 65.0167 57.7285 63.1367C55.6011 61.2567 54.5372 58.2883 54.5371 54.2314C54.5371 50.8672 55.23 47.1317 56.6152 43.0254C58.0005 38.9189 60.2265 35.3806 63.2939 32.4121C66.3613 29.3942 70.2206 27.8858 74.8711 27.8857ZM75.4648 32.4121C73.8323 32.4123 72.2494 33.6001 70.7158 35.9746C69.1821 38.3493 67.9449 41.1941 67.0049 44.5088C66.0648 47.8236 65.5947 50.7434 65.5947 53.2666C65.5947 55.641 65.8671 57.2487 66.4111 58.0898C66.9554 58.8815 67.9451 59.2773 69.3799 59.2773C70.5673 59.2773 71.755 58.6092 72.9424 57.2734C74.1296 55.8882 75.1681 54.033 76.0586 51.708C76.9492 49.3332 77.5925 46.7104 77.9883 43.8408C76.6527 43.5439 75.9844 42.5054 75.9844 40.7246C75.9844 38.6962 76.7515 37.36 78.2852 36.7168C78.1862 35.0841 77.9388 33.9707 77.543 33.377C77.1471 32.734 76.4542 32.4121 75.4648 32.4121Z" fill="#F5F5F5"/>
<path d="M36.0488 10C36.7414 10 37.7313 10.0495 39.0176 10.1484L45.4746 36.7168L56.458 10.3711H61.3564L46.959 42.8018L42.0605 65.6602H30.1865L35.085 42.8018L27.96 14.9727C24.4474 16.3085 21.7264 18.3861 19.7969 21.2061C17.8674 23.9766 16.9024 27.3904 16.9023 31.4473C16.9023 33.2778 17.0756 34.5645 17.4219 35.3066C17.7682 35.9993 17.9414 36.3952 17.9414 36.4941C15.2697 36.4941 13.2655 35.9498 11.9297 34.8613C10.6436 33.7234 10.0001 31.8682 10 29.2959C10 26.1295 11.2867 23.0613 13.8594 20.0928C16.4815 17.0749 19.8211 14.6509 23.8779 12.8203C27.9348 10.9403 31.992 10.0001 36.0488 10Z" fill="#F5F5F5"/>
<path d="M259.144 14.8477H323.144V38.8477H259.144V14.8477Z" fill="#F540B5"/>
<path d="M273.212 29.168H273.369V17.8477H277.144V35.8477H273.868L266.066 24.5186H265.936V35.8477H262.144V17.8477H265.471L273.212 29.168Z" fill="#F5F5F5"/>
<path fill-rule="evenodd" clip-rule="evenodd" d="M287.644 17.8477C289.245 17.8477 290.687 18.2011 291.969 18.9082C293.257 19.6097 294.273 20.6314 295.018 21.9717C295.768 23.3119 296.144 24.9371 296.144 26.8477C296.144 28.7582 295.768 30.3834 295.018 31.7236C294.273 33.0639 293.257 34.0877 291.969 34.7949C290.687 35.4964 289.245 35.8477 287.644 35.8477C286.031 35.8477 284.583 35.4942 283.301 34.7871C282.019 34.08 281.005 33.0559 280.261 31.7158C279.516 30.3755 279.144 28.7526 279.144 26.8477C279.144 24.9371 279.516 23.312 280.261 21.9717C281.005 20.6314 282.019 19.6097 283.301 18.9082C284.583 18.2011 286.031 17.8477 287.644 17.8477ZM287.644 21.124C286.716 21.124 285.906 21.344 285.215 21.7832C284.524 22.2224 283.986 22.8671 283.602 23.7168C283.224 24.5665 283.034 25.6102 283.034 26.8477C283.034 28.0851 283.224 29.1288 283.602 29.9785C283.986 30.8283 284.524 31.4729 285.215 31.9121C285.906 32.3513 286.716 32.5713 287.644 32.5713C288.571 32.5713 289.381 32.3513 290.072 31.9121C290.764 31.4729 291.299 30.8283 291.677 29.9785C292.061 29.1288 292.253 28.0851 292.253 26.8477C292.253 25.6102 292.061 24.5665 291.677 23.7168C291.299 22.8671 290.764 22.2224 290.072 21.7832C289.381 21.344 288.571 21.124 287.644 21.124Z" fill="#F5F5F5"/>
<path d="M304.076 30.3545H304.222L307.415 17.8477H310.872L314.057 30.3809H314.211L317.105 17.8477H321.144L316.141 35.8477H312.537L309.208 24.0791H309.071L305.75 35.8477H302.146L297.144 17.8477H301.182L304.076 30.3545Z" fill="#F5F5F5"/>
</svg>
